<svg xmlns="http://www.w3.org/2000/svg"
     version="1.1"
     width="512" height="512"
     viewBox="0 0 1024 1024">


  <path id="FondoNegro" fill="#ABADAC" stroke="none"
        d="M 278.65,353.50 C 278.65,353.50 484.55,223.50 484.55,223.50 501.11,213.10 513.35,204.58 541.22,221.12 541.22,221.12 743.81,352.72 743.81,352.72 762.88,372.03 764.53,383.30 764.77,392.06 764.77,392.06 765.41,634.19 765.41,634.19 762.60,651.78 760.35,656.58 749.94,668.37 749.94,668.37 539.08,803.78 539.08,803.78 515.32,816.26 492.74,809.57 487.81,805.39 487.81,805.39 279.53,672.23 279.53,672.23 267.21,665.30 260.10,650.25 258.58,635.16 258.58,635.16 258.58,391.41 258.58,391.41 259.82,377.88 265.54,361.99 278.65,353.50 Z" />

  <path id="FormaBeige" fill="#CDC6B6" stroke="none"
        d="M 259.37,390.66 C 257.14,389.91 258.73,637.38 258.73,637.38 258.73,637.38 261.34,658.24 278.17,671.40 294.99,684.57 485.15,804.51 485.15,804.51 502.46,810.85 515.40,792.10 512.94,782.33 512.94,782.33 511.96,554.87 511.96,554.87 509.04,527.32 485.88,514.16 477.34,509.04 477.34,509.04 286.97,386.31 286.97,386.31 286.60,386.40 271.35,377.24 259.37,390.66 Z" />

  <path id="FormaGris" fill="#A9B1B3" stroke="none"
        d="M 542.42,802.70 C 542.42,802.70 516.93,803.91 512.33,785.09 510.66,781.31 511.93,554.25 511.93,554.25 511.93,554.25 516.44,528.84 539.99,513.65 563.55,498.45 738.20,386.53 738.20,386.53 738.20,386.53 760.23,379.56 764.55,393.22 768.87,406.88 765.11,635.19 765.11,635.19 765.11,635.19 760.92,660.98 747.96,668.93 735.00,676.87 545.84,800.15 545.84,800.15 545.84,800.15 542.42,802.70 542.42,802.70 Z" />

  <path id="Path3 #4"
        fill="#F7F7F7" stroke="none" stroke-width="2"
        d="M 288.31,386.93 C 288.31,386.93 489.06,516.53 489.06,516.53 489.06,516.53 510.44,526.11 539.38,514.13 561.02,499.87 733.04,386.71 738.10,387.12 738.10,387.12 751.75,366.84 744.19,352.65 737.81,347.27 533.48,216.97 533.48,216.97 533.48,216.97 515.60,206.83 496.62,216.42 477.63,226.00 280.91,352.30 280.91,352.30 274.75,356.22 273.69,375.79 288.31,386.93 Z" />


  <path id="EsquinaIzquierda" fill="#E6E7E2" stroke="none"
        d="M 258.75,390.82 C 262.08,360.30 281.56,351.68 280.84,352.44 267.24,368.46 288.58,387.34 288.58,387.34 272.56,379.36 266.47,384.93 258.75,390.82 Z" />

  <path id="FormaCentro" fill="#EAEAE8" stroke="none"
        d="M 489.06,516.47 C 499.66,526.86 507.92,533.68 511.88,554.36 511.18,554.71 515.70,530.20 539.73,513.61 513.08,526.26 488.79,516.63 489.06,516.47 Z" />
  
  <path id="Nueva_6" fill="#EEEEEE" stroke="none"
        d="M 280.23,352.50 C 280.23,352.50 331.23,320.16 331.23,320.16 331.23,320.16 332.32,320.23 332.32,320.23 332.32,320.23 342.13,320.04 342.13,320.04 342.13,320.04 348.45,321.60 348.45,321.60 348.45,321.60 351.30,321.69 351.57,321.88 351.85,322.06 356.25,324.44 356.80,324.35 357.34,324.26 367.52,323.71 367.52,323.71 367.52,323.71 374.85,323.71 374.85,323.71 374.85,323.71 381.27,321.14 381.27,321.14 381.27,321.14 385.39,320.68 385.39,320.68 385.39,320.68 391.44,319.86 391.44,319.86 391.44,319.86 396.85,318.85 396.85,318.85 396.85,318.85 404.09,317.75 404.09,317.75 404.09,317.75 410.41,315.55 410.41,315.55 410.41,315.55 418.93,313.99 418.93,313.99 418.93,313.99 427.64,313.08 427.64,313.08 427.64,313.08 436.81,311.98 436.81,311.98 436.81,311.98 445.60,310.88 445.60,310.88 445.60,310.88 450.55,310.88 450.55,310.88 450.55,310.88 460.64,310.97 460.64,310.97 460.64,310.97 473.37,309.41 473.37,309.41 473.37,309.41 485.66,308.68 485.66,308.68 485.66,308.68 495.65,304.65 495.65,304.65 495.65,304.65 511.87,299.06 511.87,299.06 511.87,299.06 524.52,294.93 524.52,294.93 524.52,294.93 535.24,289.98 535.24,289.98 535.24,289.98 550.18,284.85 550.18,284.85 550.18,284.85 562.18,279.63 562.18,279.63 562.18,279.63 575.38,274.86 575.38,274.86 575.38,274.86 583.90,270.46 583.90,270.46 583.90,270.46 595.73,265.14 595.73,265.14 595.73,265.14 603.48,261.64 603.48,261.64 603.48,261.64 614.83,268.93 614.83,268.93 614.83,268.93 608.65,271.10 607.28,271.38 605.90,271.65 597.93,273.30 597.93,273.30 597.93,273.30 589.13,276.33 589.13,276.33 589.13,276.33 578.77,277.70 578.77,277.70 578.77,277.70 570.98,281.55 570.71,281.55 570.43,281.55 561.08,284.67 560.81,284.76 560.53,284.85 553.39,286.22 553.39,286.22 553.39,286.22 552.47,287.23 548.44,288.42 544.40,289.62 543.03,290.53 543.03,290.53 543.03,290.53 538.63,291.91 538.63,291.91 538.63,291.91 534.51,294.20 534.23,294.38 533.96,294.56 527.26,296.95 527.26,296.95 527.26,296.95 520.39,301.35 519.29,301.35 518.19,301.35 511.23,303.73 511.23,303.73 511.23,303.73 506.29,306.57 506.29,306.57 506.29,306.57 497.18,308.71 496.99,308.80 496.81,308.90 485.97,312.40 485.88,312.45 485.78,312.49 477.58,312.45 476.90,312.45 476.22,312.45 469.79,313.45 469.11,313.45 468.42,313.45 460.81,313.73 459.67,313.73 458.54,313.73 455.48,313.73 455.48,313.73 455.48,313.73 454.84,314.25 452.43,314.46 450.02,314.67 439.49,316.09 439.33,316.09 439.18,316.09 431.26,318.02 428.96,318.29 426.65,318.55 416.49,322.37 415.12,322.79 413.76,323.21 404.80,326.98 404.80,326.98 404.80,326.98 400.39,328.75 400.39,328.75 400.39,328.75 390.43,331.54 390.43,331.54 390.43,331.54 376.88,335.36 375.93,335.60 374.97,335.84 361.74,340.78 359.19,341.18 356.64,341.58 341.74,344.92 339.58,344.92 337.43,344.92 321.89,346.44 319.02,346.76 316.15,347.08 303.96,349.07 300.61,349.15 297.27,349.23 286.35,351.62 285.71,351.62 285.07,351.62 280.23,352.50 280.23,352.50 Z" />

  <path id="Nueva_7" fill="#EEEEEE" stroke="none"
        d="M 455.17,241.95 C 455.29,242.07 466.03,235.18 466.03,235.18 466.03,235.18 467.26,236.84 467.26,236.84 467.26,236.84 476.95,238.05 476.95,238.05 476.95,238.05 483.86,234.42 483.86,234.42 483.86,234.42 494.41,234.66 494.41,234.66 494.41,234.66 505.07,233.69 505.07,233.69 505.07,233.69 519.86,232.96 519.86,232.96 519.86,232.96 524.22,235.02 524.22,235.02 524.22,235.02 527.13,236.96 527.50,236.96 527.86,236.96 536.71,237.93 536.71,237.93 536.71,237.93 549.19,235.26 550.04,235.14 550.89,235.02 558.04,234.29 558.04,234.29 558.04,234.29 560.29,233.50 560.29,233.50 560.29,233.50 578.40,245.25 578.40,245.25 578.40,245.25 563.13,245.69 563.13,245.69 563.13,245.69 550.89,243.39 550.53,243.39 550.16,243.39 540.34,243.39 537.80,243.39 535.25,243.39 520.34,242.29 519.25,242.29 518.16,242.29 498.41,244.60 496.95,244.60 495.50,244.60 474.41,245.32 474.04,245.32 473.68,245.32 458.53,244.48 458.53,244.48 458.53,244.48 455.05,241.83 455.17,241.95 Z" />

  <path id="esuina"
        fill="#E4E4E4" stroke="none" stroke-width="0"
        d="M 738.31,386.36
           C 738.31,386.36 752.14,368.93 744.62,352.09
             751.48,360.13 765.18,376.88 764.98,395.21
             764.15,381.05 741.92,384.56 738.31,386.36 Z" />


  <path id="Nueva_5" fill="#EEEEEE" stroke="none"
        d="M 455.10,495.11 C 455.10,495.11 421.04,472.75 421.04,472.75 421.04,472.75 444.79,473.50 444.79,473.50 444.79,473.50 450.50,473.50 450.50,473.50 450.50,473.50 459.84,476.85 462.07,477.13 464.30,477.41 486.05,476.01 486.05,476.01 486.05,476.01 501.94,474.76 501.94,474.76 501.94,474.76 512.81,472.25 512.81,472.25 512.81,472.25 517.13,472.81 520.06,472.81 522.99,472.81 537.62,472.81 537.62,472.81 537.62,472.81 550.86,472.81 550.86,472.81 550.86,472.81 564.25,472.67 564.25,472.67 564.25,472.67 570.24,472.81 570.24,472.81 570.24,472.81 581.95,469.32 581.95,469.32 581.95,469.32 599.93,467.65 600.35,467.23 600.77,466.81 612.20,463.19 612.20,463.19 612.20,463.19 614.98,465.56 614.98,465.56 614.98,465.56 587.80,482.01 587.80,482.01 587.80,482.01 575.26,480.61 575.26,480.61 575.26,480.61 559.92,480.61 557.42,480.19 554.91,479.78 528.42,478.66 528.42,478.66 528.42,478.66 505.56,482.84 504.73,482.84 503.89,482.84 479.92,487.86 479.92,487.86 479.92,487.86 468.21,489.95 468.21,489.95 468.21,489.95 461.52,492.88 461.52,492.88 461.52,492.88 455.10,495.11 455.10,495.11 Z" />

  <path id="Nueva_1" fill="#C0B7AE" stroke="none"
        d="M 258.77,496.80 C 258.77,496.80 257.65,543.90 257.65,543.90 257.65,543.90 264.10,553.99 264.10,553.99 264.10,553.99 269.71,573.62 269.71,573.62 269.71,573.62 278.96,587.08 278.96,587.08 278.96,587.08 285.13,602.50 285.13,602.50 285.13,602.50 291.86,610.35 291.86,610.35 291.86,610.35 298.86,624.36 298.86,624.36 298.86,624.36 300.27,629.69 300.55,632.77 300.83,635.86 303.91,648.47 303.91,648.47 303.91,648.47 307.56,661.93 308.40,665.30 309.24,668.66 316.53,688.01 316.53,688.01 316.53,688.01 315.41,695.29 315.41,695.29 315.41,695.29 353.13,719.05 353.13,719.05 353.13,719.05 339.24,694.45 339.24,694.45 339.24,694.45 328.58,671.18 328.58,671.18 328.58,671.18 319.89,654.36 319.89,654.36 319.89,654.36 315.41,641.18 315.13,637.54 314.85,633.90 309.80,618.20 309.80,618.20 309.80,618.20 303.91,599.69 303.91,598.85 303.91,598.01 290.17,572.78 290.17,572.78 290.17,572.78 279.24,541.66 279.24,541.66 279.24,541.66 265.22,509.98 265.22,509.98 265.22,509.98 258.77,496.80 258.77,496.80 Z" />

  <path id="Nueva_2" fill="#C0B7AE" stroke="none"
        d="M 386.62,450.74 C 386.62,450.74 412.80,467.45 412.80,467.45 412.80,467.45 415.77,483.62 415.77,483.62 415.77,483.62 423.91,500.44 423.91,500.44 423.91,500.44 430.35,513.06 430.35,513.06 430.35,513.06 434.28,531.28 434.28,531.56 434.28,531.84 436.24,539.97 437.08,544.18 437.92,548.39 439.61,554.27 439.61,554.27 439.61,554.27 444.09,564.93 444.09,564.93 444.09,564.93 451.38,578.10 451.38,578.10 451.38,578.10 464.28,599.13 464.28,599.13 464.28,599.13 471.57,615.11 471.57,615.11 471.57,615.11 481.66,625.48 482.78,626.61 483.90,627.73 487.83,635.30 487.83,635.30 487.83,635.30 490.91,642.31 490.91,642.31 490.91,642.31 494.00,649.04 494.00,649.04 494.00,649.04 501.28,659.13 501.28,659.13 501.28,659.13 512.12,668.12 512.12,668.12 512.12,668.12 512.12,693.90 512.12,693.90 512.12,693.90 504.09,677.63 504.09,677.63 504.09,677.63 488.67,660.53 488.67,660.53 488.67,660.53 478.02,639.78 478.02,638.94 478.02,638.10 465.96,625.77 465.96,625.77 465.96,625.77 456.99,613.15 456.71,612.59 456.43,612.03 449.42,595.49 449.42,595.49 449.42,595.49 442.13,582.59 442.13,582.59 442.13,582.59 429.79,562.12 429.79,562.12 429.79,562.12 422.22,536.33 422.22,536.33 422.22,536.33 415.49,515.30 415.49,515.30 415.49,515.30 410.73,495.68 410.73,495.68 410.73,495.68 386.62,450.74 386.62,450.74 Z" />

  <path id="Nueva_3" fill="#9EA6A9" stroke="none"
        d="M 512.12,720.05 C 512.12,720.05 512.22,757.41 512.22,757.41 512.22,757.41 517.55,749.12 517.55,749.12 517.55,749.12 526.24,728.94 526.24,728.94 526.24,728.94 539.13,714.08 539.13,714.08 539.13,714.08 541.66,692.49 541.66,692.49 541.66,692.49 546.42,680.44 546.42,680.44 546.42,680.44 551.75,665.58 551.75,665.58 551.75,665.58 553.71,654.92 553.71,654.92 553.71,654.92 569.69,625.48 569.69,625.48 569.69,625.48 580.07,604.46 580.07,604.46 580.07,604.46 588.48,594.36 588.48,594.36 588.48,594.36 594.36,583.43 594.36,583.43 594.36,583.43 604.46,558.76 604.46,558.76 604.46,558.76 612.59,538.57 612.59,538.57 612.59,538.57 628.85,500.72 628.85,500.72 628.85,500.72 637.26,483.06 637.26,483.06 637.26,483.06 650.72,456.99 650.72,456.99 650.72,456.99 658.57,438.48 658.57,438.48 658.57,438.48 632.71,452.59 632.71,452.59 632.71,452.59 621.23,487.70 621.23,488.54 621.23,489.38 612.03,509.89 611.75,510.45 611.47,511.01 604.74,527.36 603.90,528.20 603.06,529.04 594.65,552.31 594.65,552.31 594.65,552.31 587.92,571.09 587.92,571.09 587.92,571.09 583.15,583.43 583.15,583.43 583.15,583.43 571.94,601.09 571.94,601.09 571.94,601.09 561.56,622.40 561.56,622.40 561.56,622.40 555.96,631.37 555.11,631.65 554.27,631.93 546.14,652.68 546.14,652.68 546.14,652.68 541.38,661.37 541.38,661.37 541.38,661.37 533.81,680.72 533.81,680.72 533.81,680.72 527.92,696.14 527.92,696.14 527.92,696.14 525.12,710.43 525.12,710.43 525.12,710.43 512.12,720.05 512.12,720.05 Z" />

  <path id="Nueva_4" fill="#9DA4AA" stroke="none"
        d="M 656.37,728.49 C 656.37,728.49 681.89,712.00 681.89,712.00 681.89,712.00 693.88,688.44 693.88,688.44 693.88,688.44 701.96,670.88 701.96,670.88 701.96,670.88 708.37,658.33 708.37,658.33 708.37,658.33 712.00,652.48 712.00,652.48 712.00,652.48 718.13,639.10 718.13,639.10 718.13,639.10 724.54,629.62 724.54,629.62 724.54,629.62 729.42,623.90 729.42,623.90 729.42,623.90 731.65,617.07 731.65,617.07 731.65,617.07 737.79,608.15 737.79,608.15 737.79,608.15 741.69,604.39 741.69,604.39 741.69,604.39 746.85,594.63 746.85,594.63 746.85,594.63 753.81,582.23 753.81,582.23 753.81,582.23 757.02,573.72 757.02,573.72 757.02,573.72 760.92,566.75 760.92,566.75 760.92,566.75 765.25,560.40 765.25,560.40 765.25,560.40 765.24,541.94 765.24,541.94 765.24,541.94 759.39,548.08 759.25,548.36 759.11,548.63 759.25,556.58 758.97,557.00 758.69,557.42 751.31,564.52 750.89,564.94 750.47,565.36 746.43,575.68 746.43,575.68 746.43,575.68 745.31,581.95 743.50,584.18 741.69,586.41 738.62,593.38 738.62,593.38 738.62,593.38 731.09,603.69 731.09,603.69 731.09,603.69 725.38,611.22 725.38,611.22 725.38,611.22 721.62,617.35 721.62,617.35 721.62,617.35 716.88,624.88 716.88,624.88 716.88,624.88 710.74,632.55 710.74,632.55 710.74,632.55 708.37,638.26 708.37,638.26 708.37,638.26 703.91,645.51 703.08,646.76 702.24,648.02 696.11,655.69 696.11,655.69 696.11,655.69 691.09,662.38 691.09,662.38 691.09,662.38 688.02,666.00 687.33,668.65 686.63,671.30 685.65,676.04 685.24,676.31 684.82,676.59 679.66,685.24 679.66,685.24 679.66,685.24 676.18,692.48 676.18,692.48 676.18,692.48 670.74,703.22 670.74,703.22 670.74,703.22 666.28,711.58 666.28,711.58 666.28,711.58 660.84,720.92 660.84,720.92 660.84,720.92 656.37,728.49 656.37,728.49 Z" />

</svg>
